<?xml version="1.0" encoding="UTF-8"?>
<svg id="Layer_2" data-name="Layer 2" xmlns="http://www.w3.org/2000/svg" viewBox="0 0 368.71 441.95">
  <g id="Layer_1-2" data-name="Layer 1">
    <g>
      <path d="M270.64,309.81c-13.24,13.21-27.33,25.69-40.15,39.35-3.72,3.17-9.23,1.98-13.74,1.74-41.02-11.35-83.35-18.42-124.39-29.61-11.77-3.21-12.34-3.55-15.7-15.3-7.5-26.26-13.36-56.67-19.38-83.62-2.31-10.33-6.82-25.22-8.04-34.97-1-8,4.72-13.1,9.72-18.76,23.98-27.15,54.02-51.5,78.5-78.5,8.38-10.13,20.87-3.78,31.74-.69,31.69,9.03,71.98,20.82,102.33,32.67,1.55.6,3.49,1.25,4.82,2.18,4.06,2.88,8.04,16.65,9.93,22.07,8.98,25.76,17.77,54.34,25.43,80.57,1.98,6.79,7.85,23.76,7.34,29.71-.34,3.94-7.51,11.18-10.53,14.52-11.55,12.74-25.58,26.38-37.86,38.64ZM289.98,237.16c.37-3.24-.46-6.15-1.28-9.21-6.22-23.28-16.12-53.87-24.43-76.57-.84-2.3-2.2-6.64-3.71-8.29-2.36-2.59-31.84-11.27-37.82-13.18-14.48-4.65-29.17-8.89-43.75-13.25-3.73-1.11-7.51-3.46-12.01-3.48l28.93,93.56c30.7,11.71,62.65,20.58,94.05,30.44ZM162.33,223.51c3.82-3.75,11.45-7.42,10.58-13.71l-28.2-89.87-2.23-2.75-69.09,69.95,21.61,98.03c2.47,1.7,11.43-9.09,13.47-10.97,18.16-16.69,36.37-33.47,53.86-50.68ZM112.99,303.15l105.82,24.34,3.23-1.79,63.96-65.02-95.54-31.14-77.46,73.62Z"/>
      <path d="M155.73,377.41c3.89,9.16,7.4,19.28,12.85,27.66,8.71,13.39,16.47,19.35,28.24,4.42,7.75-9.83,11.2-21.98,17.2-32.8l23.96-6.53c2.05,2.21-4.88,19.78-6.24,23.25-6.1,15.49-19.32,41.46-36.22,46.78-28.28,8.91-46.29-17.81-56.02-40.05-1.83-4.18-10.99-27.34-8.51-29.98l24.74,7.24Z"/>
      <path d="M339.68,267.49c3.55,3.03,14.78,21.04,17.48,26,7.35,13.49,14.46,33.46,10.33,48.67-9.78,35.97-67.39,21.92-92.5,12.51l-.5-4.52,18.21-13.81c13.75,3.56,27.21,7.42,41.68,5.71,26.36-3.12-1.55-41.49-7.33-53.38l9.52-22.45c1.17.05,2.23.53,3.11,1.28Z"/>
      <path d="M176.32,26.52c-8.77,6.36-16.56,28.21-20.57,38.39l-25.76,6.24c4.43-21.32,20.28-61.31,42.46-69.03,38.34-13.35,59.33,39.51,66.06,68.04-.91,1.33-1.54.84-2.73.77-2.71-.16-19.61-4.43-21.35-5.72-2.81-2.08-7.92-17.35-10.25-21.75-5.45-10.29-14.9-26.35-27.85-16.95Z"/>
      <path d="M40.73,291.93c-.24.4-1.76.63-2.5,1.93-5.32,9.33-15.66,27.33-15.33,37.8.38,12.2,16.82,11.15,25.63,10.54,9.48-.67,18.52-4.1,27.76-5.87,4.89,3.39,9.13,7.61,13.77,11.3,1.88,1.49,7.6,2.74,3.5,6.57-1.99,1.86-22.48,7.93-26.31,8.71-72.52,14.74-82.82-30.52-47.06-83.06,1.33-1.95,9.41-13.42,10.42-13.64,1.25-.26,2.24,1.09,2.83,2.02.72,1.12,6.9,16.16,7.29,17.69s.79,4.71.01,6.01Z"/>
      <path d="M336,176.16l-8.84-24.29c5.65-9.06,12.47-18.95,15.88-29.16,3.55-10.63,6.06-20.71-8-23.11s-28.7,2.96-42.35,5.37l-18.24-13.79-.41-2.43c18.66-10.47,44.11-13.48,65.48-11.63,23.13,2.01,32.26,22.24,28.21,43.28-2.96,15.38-16.52,40.29-26.77,52.23-.78.91-3.73,4.45-4.96,3.52Z"/>
      <path d="M31.4,135.77c2.02,3.89,7.39,10.02,8.8,13.67.58,1.5.93,2.53.86,4.21-.07,1.46-6.8,18.4-7.87,20.22-.8,1.35-1.18,2.7-3.18,2.29-14.71-20.18-40.77-59.88-25.21-84.69,14.21-22.66,63.44-15.11,84.45-6.06,2.42,1.04,7.4,2.39,5.27,5.78l-18.26,13.77c-12.5-1.73-39.58-11.27-50.24-2.27-7.53,6.36,1.64,25.85,5.39,33.08Z"/>
    </g>
  </g>
</svg>